<?xml version="1.0" encoding="utf-8"?>
<!-- Designed by Vexels.com - 2019 All Rights Reserved - https://vexels.com/terms-and-conditions/  -->
<svg version="1.1" id="Layer_1" xmlns="http://www.w3.org/2000/svg" xmlns:xlink="http://www.w3.org/1999/xlink" x="0px" y="0px"
	 viewBox="0 0 1200 1200" enable-background="new 0 0 1200 1200" xml:space="preserve">
<path fill="#2F2135" d="M992.986,846.663c-0.198-1.634-0.198-5.663-0.198-7.255v-28.952c0-7.169,0-23.69-7.161-40.512
	c1.344-3.235,2.524-6.754,3.531-10.518c1.214-2.872,2.457-5.726,3.638-8.616c46.349-113.407,64.671-234.106,52.982-349.048
	c-2.583-25.402-23.784-44.557-49.318-44.557h-31.299c-77.726,0-112.85-20.808-157.337-47.156
	c-22.406-13.269-46.21-27.354-75.764-38.643c-35.035-25.39-78.081-40.403-124.645-40.403c-40.47,0-78.296,11.303-110.503,30.917
	c-43.785,12.063-75.464,30.796-104.751,48.14c-44.477,26.34-79.606,47.145-157.316,47.145h-31.309
	c-25.533,0-46.735,19.155-49.315,44.56c-11.688,114.945,6.633,235.644,52.98,349.046c3.054,7.473,6.258,14.862,9.529,22.21
	c-7.484,6.519-12.248,16.078-12.248,26.783v17.352c0,52.972,34.296,88.562,85.345,88.562c0.747,0,1.479-0.034,2.22-0.048
	c5.579,7.896,11.317,15.648,17.166,23.295c-0.579,1.747-0.747,3.473-0.747,5.161v96.294c0,2.98,1.767,5.533,4.301,6.715
	c10.607,10.991,59.637,20.477,129.564,26.241c42.829,33.15,89.011,60.975,137.688,82.418c6.336,2.792,13.057,4.206,19.983,4.206
	c6.928,0,13.652-1.415,19.983-4.206c48.677-21.443,94.86-49.268,137.689-82.418c79.29-6.537,131.723-17.858,131.723-30.732
	c0-0.764-0.206-1.522-0.571-2.273v-96.244c0-0.793-0.044-1.595-0.142-2.403c7.462-9.666,14.705-19.541,21.733-29.608
	c3.192,0.935,6.542,1.457,9.989,1.457h43.014c11.922,0,23.05-5.974,29.635-15.913c6.588-9.936,7.753-22.514,3.108-33.493
	L992.986,846.663z M866.42,445.585c21.345,6.08,46.346,10.125,76.955,10.595c1.662,44.292-2.877,89.205-13.554,134.117H812.724
	c33.395-36.327,53.809-84.769,53.809-137.893C866.533,450.126,866.495,447.853,866.42,445.585z M830.441,668.719v38.462h-50.933
	v40.619h40.48v38.46h-40.48v43.301h50.933v38.46H738.37V668.719H830.441z M781.796,517.942c2.032-19.597,3.523-39.993,5.057-61.881
	c0,0,3.35-16.335,4.972-22.83l6.056-0.63c0.21,3.666,0.351,7.351,0.351,11.07C798.232,471.642,792.61,494.025,781.796,517.942z
	 M792.138,410.461c-4.781-17.026-13.923-33.998-22.124-47.02l-4.359-26.442c14.609,21.632,24.87,46.43,29.607,73.136
	L792.138,410.461z M760.852,544.807c-11.64,12.019-32.161,27.024-42.489,33.367l-58.176-38.544
	c1.932-12.894,4.675-31.449,6.526-44.968c8.823-4.806,22.445-12.871,44.138-26.427c5.697-3.56,11.354-7.129,16.706-10.526
	l35.286,16.393C760.134,509.101,760.852,544.807,760.852,544.807z M662.972,705.036c-4.782,0-9.451,0.978-9.451,12.669v101.33
	c0,11.453,4.471,12.401,9.451,12.401c4.983,0,9.454-0.948,9.454-12.401v-32.633h39.531v30.755c0,33.688-18.148,53.009-49.789,53.009
	s-49.789-19.321-49.789-53.009v-97.574c0-33.686,18.147-53.007,49.789-53.007s49.789,19.321,49.789,53.007v24.055h-39.531v-25.933
	C672.427,706.014,667.754,705.036,662.972,705.036z M539.396,705.036c-4.782,0-9.451,0.978-9.451,12.669v101.33
	c0,11.453,4.471,12.401,9.451,12.401c4.983,0,9.454-0.948,9.454-12.401v-32.633h39.531v30.755c0,33.688-18.147,53.009-49.789,53.009
	s-49.789-19.321-49.789-53.009v-97.574c0-33.686,18.147-53.007,49.789-53.007s49.789,19.321,49.789,53.007v24.055H548.85v-25.933
	C548.85,706.014,544.178,705.036,539.396,705.036z M387.271,581.351H270.172c-10.677-44.912-15.215-89.825-13.553-134.117
	c30.609-0.471,55.609-4.517,76.955-10.595c-0.075,2.266-0.114,4.541-0.114,6.819C333.461,496.581,353.876,545.022,387.271,581.351z
	 M362.542,719.583c0-33.686,18.44-53.007,50.593-53.007c32.156,0,50.595,19.321,50.595,53.007v97.574
	c0,33.688-18.439,53.009-50.595,53.009c-32.153,0-50.593-19.321-50.593-53.009V719.583z M433.512,522.283
	c4.684-10.149,12.013-21.729,17.872-30.378l80.427,16.572c6.28,15.759,18.454,41.737,27.957,56.477l-26.699,45.769
	c-18.766-4.857-34.527-12.318-44.499-17.778C465.061,574.187,446.079,550.023,433.512,522.283z M452.349,406.915l63.725-62.412
	c13.135,5.544,35.048,15.539,49.182,22.047l12.673,79.227c-11.845,10.969-30.437,29.559-41.372,40.587l-78.026-16.079
	C453.399,446.884,452.414,421.542,452.349,406.915z M574.513,631.638c-7.055-3.661-14.653-8.294-20.465-11.995l25.594-43.875
	c17.526-2.461,50.5-12.333,67.513-17.643l55.692,36.899c-6.564,11.082-12.307,18.097-16.559,22.39
	c-24.047,10.948-50.728,17.093-78.873,17.093C596.161,634.507,585.213,633.499,574.513,631.638z M587.639,363.3
	c12.005-10.567,32.582-24.964,45.224-33.557l79.912,50.853c1.834,16.343,2.549,42.173,2.822,57.944
	c-22.201,14.081-42.948,26.825-56.008,34.237c-14.544-7.277-43.051-21.644-59.202-29.786L587.639,363.3z M631.009,254.293
	c40.813,5.034,77.629,22.96,106.265,49.576l6.577,39.897c-7.15,3.834-16.626,9.847-23.881,14.602l-82.107-52.25
	c-4.278-9.252-10.057-20.525-14.621-29.214L631.009,254.293z M607.415,252.841c0.059,0,0.118,0.001,0.178,0.001l-3.672,10.689
	c-29.79,1.89-56.249,10.23-68.703,14.744l-6.711-8.365C552.56,258.968,579.265,252.841,607.415,252.841z M508.166,280.693
	l10.662,13.29l2.047-1.642c-2.923,6.873-6,15.894-8.648,24.276l-73.443,71.93c-4.473-1.345-9.107-2.376-13.148-3.128
	C439.746,341.395,469.418,304.345,508.166,280.693z M203.536,406.777c-8.132,79.988-0.851,165.161,23.579,250.373
	c-6.993,7.764-12.472,17.065-16.19,27.651c-29.505-92.571-40.151-188.44-30.803-280.405c1.227-12.061,11.292-21.156,23.414-21.156
	h31.309c84.841,0,126.489-24.663,170.59-50.78c10.871-6.438,22.1-13.079,34.219-19.46c-9.97,12.775-18.509,26.707-25.385,41.579
	c-44.617,26.395-90.238,52.197-179.425,52.197H203.536z M289.827,870.166c-31.644,0-49.792-19.321-49.792-53.009v-17.352h39.534
	v19.23c0,11.453,4.471,12.401,9.451,12.401c4.983,0,9.454-0.948,9.454-12.401c0-15.152-10.839-25.07-23.39-36.552
	c-16.05-14.686-34.243-31.331-34.243-62.9c0-33.686,17.952-53.007,49.253-53.007s49.253,19.321,49.253,53.007v11.723h-39.534
	v-13.601c0-12.669-5.154-12.669-8.916-12.669c-3.761,0-8.916,0-8.916,12.669c0,15.152,10.839,25.07,23.39,36.552
	c16.05,14.686,34.243,31.331,34.243,62.9C339.616,850.845,321.468,870.166,289.827,870.166z M341.753,889.891
	c4.349,5.875,8.748,11.692,13.246,17.395c-10.333,2.098-18.398,4.26-24.683,6.454c-3.268-4.266-6.494-8.57-9.677-12.918
	C328.384,898.175,335.454,894.491,341.753,889.891z M609.484,1121.97c-6.012,2.647-12.953,2.65-18.97-0.003
	c-60.009-26.435-116.122-62.938-166.526-107.503c10.504-1.013,21.528-1.928,33.015-2.738
	c44.574,36.711,92.807,66.593,142.998,88.703c50.111-22.074,98.264-51.896,142.777-88.526c11.479,0.83,22.5,1.763,32.973,2.797
	C725.414,1059.161,669.389,1095.582,609.484,1121.97z M867.437,968.166c-6.844-0.34-13.684-0.693-20.534-0.959
	c-7.375-0.287-14.763-0.549-22.157-0.56c-4.021-0.007-14.871-0.806-12.83,4.975c0.68,1.924,3.063,3.161,5.345,3.72
	c16.758,4.103,33.466,8.369,50.176,12.631v1.187c-6.576-0.324-13.15-0.664-19.731-0.92c-7.375-0.287-14.763-0.549-22.157-0.561
	c-4.021-0.007-14.872-0.805-12.83,4.976c0.68,1.923,3.063,3.16,5.345,3.718c6.061,1.484,12.102,3.033,18.153,4.554
	c-10.553-1.941-23.148-3.818-38.185-5.611c-53.337-6.361-124.148-9.864-199.388-9.864c-75.241,0-146.052,3.503-199.388,9.864
	c-7.961,0.95-15.21,1.922-21.861,2.916c1.058-0.34,2.111-0.695,3.171-1.033c2.237-0.715,4.529-2.114,5.074-4.079
	c1.638-5.91-9.13-4.363-13.143-4.079c-7.375,0.522-14.726,1.294-22.064,2.09c-6.869,0.745-13.724,1.574-20.583,2.392v-1.006
	c16.67-5.503,33.335-11.012,50.065-16.357c2.237-0.714,4.529-2.112,5.074-4.079c1.638-5.909-9.13-4.363-13.142-4.077
	c-7.377,0.522-14.728,1.294-22.064,2.088c-6.653,0.722-13.292,1.526-19.933,2.317v-1.204c15.781-5.211,31.561-10.419,47.401-15.479
	c2.237-0.714,4.529-2.112,5.074-4.079c1.638-5.909-9.13-4.361-13.142-4.077c-7.375,0.522-14.728,1.294-22.064,2.09
	c-5.764,0.624-11.514,1.327-17.269,2.007v-0.163c15.781-5.211,31.561-10.419,47.401-15.478c2.237-0.715,4.529-2.114,5.074-4.08
	c1.638-5.909-9.13-4.361-13.142-4.077c-3.846,0.272-7.685,0.616-11.518,0.991c10.599-2.202,24.913-4.57,44.218-6.874
	c52.499-6.261,122.376-9.706,196.761-9.706s144.261,3.445,196.758,9.706c12.44,1.484,22.793,2.995,31.43,4.471
	c-0.734-0.005-1.467-0.034-2.201-0.035c-4.021-0.007-14.871-0.806-12.83,4.976c0.68,1.924,3.063,3.16,5.345,3.718
	c16.411,4.018,32.775,8.194,49.139,12.368c-6.045-0.295-12.088-0.611-18.137-0.845c-7.375-0.287-14.763-0.549-22.157-0.561
	c-4.021-0.007-14.872-0.806-12.83,4.976c0.68,1.924,3.063,3.16,5.343,3.718c16.343,4.001,32.637,8.158,48.93,12.315V968.166z
	 M869.093,914.511c-6.107-2.288-14.091-4.544-24.47-6.735c1.372-1.736,2.706-3.515,4.063-5.267c2.707,0.667,5.52,1.064,8.433,1.064
	h20.241C874.639,907.253,871.875,910.891,869.093,914.511z M920.405,868.02l-1.329-3.981l5.527-1.846l-5.607,1.607
	c-1.854-5.548-2.901-9.43-2.901-24.66v-29.488c0-16.738-5.586-18.032-13.473-18.032h-4.361v76.399h-41.141V668.719h50.328
	c33.324,0,49.521,16.023,49.521,48.985v14.745c0,17.119-4.742,29.806-14.118,37.865c12.706,10.303,14.386,27.339,14.386,40.142
	v28.952c0,8.455,0.193,14.453,2.757,20.513l3.426,8.099H920.405z M996.461,406.777h-31.297c-76.225,0-120.623-18.848-159.774-40.804
	c-5.418-13.787-12.215-26.873-20.255-39.08c3.181,1.865,6.325,3.724,9.437,5.567c44.088,26.115,85.733,50.78,170.59,50.78h31.299
	c12.122,0,22.187,9.095,23.414,21.156c9.429,92.724-1.467,189.425-31.536,282.712c-3.351-11.221-8.663-20.884-15.786-28.795
	C997.251,572.714,1004.631,487.129,996.461,406.777z M906.643,707.182h-8.383v45.979h5.701c7.694,0,11.865-2.234,11.865-14.011
	v-18.496C915.826,708.176,911.845,707.182,906.643,707.182z M506.16,238.441c-0.075,0.959,0.356,1.886,1.139,2.446
	c0.474,0.338,1.034,0.512,1.597,0.512c0.367,0,0.737-0.075,1.085-0.222c30.972-13.339,62.804-20.615,94.609-21.63
	c33.045-1.021,72.515,9.639,96.205,19.117c0.844,0.34,1.827,0.233,2.585-0.297c0.758-0.525,1.2-1.398,1.176-2.323
	c-1.535-59.187,30.302-121.956,30.624-122.583c0.624-1.216,0.257-2.703-0.857-3.493c-1.109-0.785-2.636-0.638-3.576,0.354
	c-2.762,2.923-5.401,5.696-7.93,8.337c-1.664-4.723-5.886-8.085-10.818-8.085c-6.368,0-11.549,5.629-11.549,12.548
	c0,5.063,2.775,9.435,6.759,11.418c-9.963,9.843-29.062,27.845-35.29,25.244c-4.865-2.031-4.744-18.506-4.605-37.586l0.003-0.421
	c5.993-0.455,10.737-5.88,10.737-12.484c0-6.917-5.184-12.546-11.557-12.546c-6.376,0-11.565,5.629-11.565,12.546
	c0,3.065,1.029,5.958,2.877,8.222c-7.753,13.853-16.278,27.243-22.426,26.948c-5.838-0.402-12.382-13.856-17.858-27.382
	c0.745,0.113,1.495,0.169,2.25,0.169c9.385,0,17.017-8.345,17.017-18.603c0-7.93-4.621-14.903-11.297-17.534
	c1.047-12.243-11.747-23.749-18.839-30.123l-0.319-0.287c-1.045-0.938-2.631-0.938-3.67,0l-0.386,0.346
	c-7.073,6.368-19.833,17.853-18.774,30.066c-6.684,2.628-11.308,9.604-11.308,17.531c0,10.258,7.641,18.603,17.03,18.603
	c0.753,0,1.506-0.059,2.253-0.174c-5.473,13.529-12.021,26.985-17.858,27.387c-6.076,0.297-14.676-13.095-22.434-26.945
	c1.851-2.264,2.883-5.157,2.883-8.224c0-6.917-5.192-12.546-11.573-12.546c-6.373,0-11.557,5.629-11.557,12.546
	c0,6.604,4.747,12.029,10.737,12.484l0.003,0.367c0.142,19.107,0.265,35.604-4.605,37.64c-6.237,2.609-25.335-15.404-35.29-25.247
	c3.992-1.982,6.77-6.352,6.77-11.415c0-6.92-5.192-12.548-11.576-12.548c-4.927,0-9.146,3.362-10.807,8.085
	c-2.534-2.639-5.168-5.409-7.906-8.329c-0.967-1.026-2.545-1.155-3.665-0.303c-1.12,0.855-1.409,2.416-0.675,3.614
	C474.299,114.249,511.106,175.107,506.16,238.441z M604.493,155.513l7.608,18.137l-7.608,18.126l-7.6-18.126L604.493,155.513z
	 M499.934,938.968c2.392-1.345,5.12-2.017,8.184-2.017c5.216,0,9.65,2.205,13.307,6.614l10.161-9.194
	c-2.741-3.44-6.183-6.076-10.322-7.903c-4.139-1.827-8.79-2.743-13.952-2.743c-5.915,0-11.222,1.251-15.927,3.751
	s-8.401,5.982-11.088,10.443c-2.69,4.463-4.032,9.518-4.032,15.163c0,5.645,1.342,10.7,4.032,15.16
	c2.687,4.463,6.384,7.943,11.088,10.445c4.704,2.499,10.011,3.748,15.927,3.748c5.162,0,9.813-0.914,13.952-2.741
	c4.139-1.827,7.582-4.463,10.322-7.903l-10.161-9.194c-3.657,4.41-8.091,6.612-13.307,6.612c-3.065,0-5.792-0.67-8.184-2.015
	c-2.392-1.345-4.249-3.239-5.564-5.685c-1.318-2.446-1.977-5.256-1.977-8.428c0-3.172,0.659-5.982,1.977-8.428
	C495.685,942.207,497.542,940.313,499.934,938.968z M562.716,924.855h-15.969v56.452h42.904v-12.661h-26.935V924.855z
	 M640.3,955.661c0,9.034-3.55,13.548-10.646,13.548c-7.15,0-10.727-4.514-10.727-13.548v-30.806H602.96v31.291
	c0,8.385,2.323,14.866,6.976,19.436c4.648,4.57,11.169,6.853,19.557,6.853c8.385,0,14.906-2.282,19.557-6.853
	c4.648-4.57,6.976-11.051,6.976-19.436v-31.291H640.3V955.661z M718.283,951.87c2.419-1.235,4.286-2.915,5.604-5.039
	s1.977-4.53,1.977-7.217c0-4.517-1.883-8.107-5.647-10.767c-3.764-2.663-9.248-3.992-16.452-3.992h-28.871v56.452h30.484
	c7.528,0,13.28-1.342,17.258-4.032c3.978-2.687,5.969-6.505,5.969-11.453c0-3.386-0.914-6.277-2.741-8.669
	C724.035,954.761,721.508,953,718.283,951.87z M690.703,936.385h10.968c5.374,0,8.064,1.803,8.064,5.404
	c0,3.657-2.69,5.484-8.064,5.484h-10.968V936.385z M704.089,969.774h-13.387v-11.45h13.387c5.591,0,8.385,1.907,8.385,5.725
	S709.681,969.774,704.089,969.774z M794.199,937.237l-13.533,7.131l-13.546-7.105l2.6,15.075l-10.942,10.688l15.14,2.185
	l6.783,13.711l6.756-13.724l15.136-2.214l-10.965-10.666L794.199,937.237z M439.593,937.237l-13.533,7.131l-13.548-7.105
	l2.601,15.075l-10.944,10.688l15.14,2.185l6.785,13.711l6.755-13.724l15.136-2.214l-10.965-10.666L439.593,937.237z
	 M413.135,831.704c4.782,0,9.454-0.978,9.454-12.669v-101.33c0-11.691-4.672-12.669-9.454-12.669c-4.782,0-9.451,0.978-9.451,12.669
	v101.33C403.684,830.726,408.353,831.704,413.135,831.704z"/>
</svg>
